<?xml version="1.0" encoding="UTF-8"?>
<!DOCTYPE svg PUBLIC "-//W3C//DTD SVG 1.1//EN" "http://www.w3.org/Graphics/SVG/1.1/DTD/svg11.dtd">
<svg xmlns="http://www.w3.org/2000/svg" version="1.1" width="1879px" height="450px" style="shape-rendering:geometricPrecision; text-rendering:geometricPrecision; image-rendering:optimizeQuality; fill-rule:evenodd; clip-rule:evenodd" xmlns:xlink="http://www.w3.org/1999/xlink">
<g><path style="opacity:1" fill="#fdfdfd" d="M -0.5,-0.5 C 383.5,-0.5 767.5,-0.5 1151.5,-0.5C 1098.04,22.7882 1056.21,59.4549 1026,109.5C 1015.81,125.74 1009.81,143.407 1008,162.5C 1003.97,198.806 1003.64,235.139 1007,271.5C 1008.71,281.716 1011.04,291.716 1014,301.5C 1024.61,256.961 1043.28,216.295 1070,179.5C 1075.38,172.713 1081.22,166.38 1087.5,160.5C 1090.83,157.833 1093.83,154.833 1096.5,151.5C 1117.65,130.569 1141.99,114.069 1169.5,102C 1186.35,94.5237 1204.02,91.3571 1222.5,92.5C 1241.43,90.7845 1259.09,94.6179 1275.5,104C 1289.17,112.996 1301.67,123.496 1313,135.5C 1316.13,138.923 1318.63,142.757 1320.5,147C 1271.51,169.672 1221.84,191.006 1171.5,211C 1164.16,214.419 1156.5,215.753 1148.5,215C 1147.11,213.829 1146.27,212.329 1146,210.5C 1142.35,188.953 1139.68,167.286 1138,145.5C 1126.55,160.956 1115.88,176.956 1106,193.5C 1083.73,235.366 1077.73,279.366 1088,325.5C 1099.33,363.36 1119.17,395.86 1147.5,423C 1154.89,428.685 1162.55,433.852 1170.5,438.5C 1175.97,442.957 1181.97,446.624 1188.5,449.5C 792.167,449.5 395.833,449.5 -0.5,449.5C -0.5,299.5 -0.5,149.5 -0.5,-0.5 Z M 919.5,360.5 C 910.167,361.167 900.833,361.833 891.5,362.5C 860.832,362.667 830.165,362.5 799.5,362C 792.792,361.711 786.125,361.045 779.5,360C 776.966,359.484 774.8,358.317 773,356.5C 746.516,283.195 719.183,210.195 691,137.5C 688.798,131.228 686.798,124.895 685,118.5C 679.771,109.875 674.938,101.042 670.5,92C 676.342,90.2141 682.342,89.2141 688.5,89C 730.137,86.6474 771.803,85.9807 813.5,87C 817.108,87.0259 820.442,87.8593 823.5,89.5C 820.636,95.5308 816.802,100.864 812,105.5C 808.1,115.233 807.433,125.233 810,135.5C 813,148.165 817,160.499 822,172.5C 837.102,205.475 850.436,239.142 862,273.5C 863.814,274.76 865.647,274.76 867.5,273.5C 874.289,258.301 879.789,242.635 884,226.5C 893.607,192.072 902.274,157.405 910,122.5C 910.667,117.833 910.667,113.167 910,108.5C 906.731,101.978 904.064,95.3115 902,88.5C 908.216,87.18 914.549,86.5133 921,86.5C 941.247,86.8942 961.413,88.0608 981.5,90C 976.073,97.4305 969.907,104.264 963,110.5C 955.879,120.85 950.879,132.184 948,144.5C 931.265,206.273 914.765,268.106 898.5,330C 902.977,341.964 909.977,352.131 919.5,360.5 Z M 331.5,365.5 C 301.76,365.825 272.093,365.492 242.5,364.5C 211.029,309.56 178.529,255.227 145,201.5C 143.89,199.963 142.39,199.297 140.5,199.5C 139.034,243.186 139.534,286.853 142,330.5C 142.582,336.495 144.248,342.162 147,347.5C 151.833,353 156.667,358.5 161.5,364C 138.86,365.564 116.194,365.898 93.5,365C 89.9716,364.911 86.6382,364.244 83.5,363C 88.458,355.585 93.2913,348.085 98,340.5C 99.4725,336.277 100.472,331.943 101,327.5C 104.504,278.873 105.171,230.207 103,181.5C 102.394,161.074 100.727,140.741 98,120.5C 97.0581,117.007 95.7248,113.674 94,110.5C 87.8333,103.667 81.6667,96.8333 75.5,90C 82.0594,88.7446 88.726,88.0779 95.5,88C 127.187,87.0966 158.853,87.43 190.5,89C 193.754,89.2503 196.754,90.2503 199.5,92C 229.205,147.939 261.538,202.106 296.5,254.5C 298.119,248.987 298.952,243.32 299,237.5C 299.667,202.5 299.667,167.5 299,132.5C 298.614,126.29 297.281,120.29 295,114.5C 289.958,106.249 284.792,98.0822 279.5,90C 283.313,88.7378 287.313,88.0712 291.5,88C 311.524,87.1502 331.524,87.4835 351.5,89C 351.957,89.414 352.291,89.914 352.5,90.5C 348.667,97.5 344.833,104.5 341,111.5C 339.358,116.708 338.358,122.041 338,127.5C 336.404,197.489 336.07,267.489 337,337.5C 344.073,345.404 350.573,353.737 356.5,362.5C 355.624,363.251 354.624,363.751 353.5,364C 346.154,364.417 338.821,364.917 331.5,365.5 Z M 495.5,89.5 C 523.518,89.7549 551.518,90.5882 579.5,92C 584.475,91.6178 588.642,93.1178 592,96.5C 621.667,176.167 651.333,255.833 681,335.5C 686.023,343.546 690.523,351.879 694.5,360.5C 694.291,361.086 693.957,361.586 693.5,362C 675.595,364.483 657.595,365.816 639.5,366C 611.167,366.667 582.833,366.667 554.5,366C 551.086,365.703 547.753,365.036 544.5,364C 542.789,362.867 542.289,361.367 543,359.5C 545.333,355.833 548.333,352.833 552,350.5C 557.561,341.135 558.894,331.135 556,320.5C 553.44,309.258 550.107,298.258 546,287.5C 530.599,252.368 516.599,216.701 504,180.5C 499.952,177.353 497.285,178.353 496,183.5C 478.4,234.138 464.566,285.804 454.5,338.5C 455.843,346.695 458.677,354.361 463,361.5C 463.49,362.793 463.657,364.127 463.5,365.5C 437.491,366.519 411.491,366.019 385.5,364C 385.043,363.586 384.709,363.086 384.5,362.5C 390.814,355.018 397.314,347.685 404,340.5C 407.103,335.731 409.769,330.731 412,325.5C 430.134,261.299 447.8,196.965 465,132.5C 466.244,128.221 466.577,123.888 466,119.5C 461.054,109.222 454.554,100.056 446.5,92C 462.995,91.2182 479.329,90.3849 495.5,89.5 Z"/></g>
<g><path style="opacity:1" fill="#fdfdfd" d="M 1318.5,-0.5 C 1505.17,-0.5 1691.83,-0.5 1878.5,-0.5C 1878.5,149.5 1878.5,299.5 1878.5,449.5C 1715.17,449.5 1551.83,449.5 1388.5,449.5C 1410.1,438.033 1431.1,425.533 1451.5,412C 1459.45,406.382 1467.12,400.382 1474.5,394C 1477.97,390.56 1479.97,386.393 1480.5,381.5C 1475.63,346.077 1470.3,310.743 1464.5,275.5C 1463.45,275.351 1462.45,275.517 1461.5,276C 1446.5,289.667 1431.5,303.333 1416.5,317C 1396.71,333.568 1374.71,346.568 1350.5,356C 1316.58,367.495 1282.25,369.162 1247.5,361C 1231.44,352.712 1217.28,341.879 1205,328.5C 1201.84,324.844 1199.17,320.844 1197,316.5C 1196.2,314.741 1196.37,313.074 1197.5,311.5C 1286.27,272.783 1375.27,234.616 1464.5,197C 1469.24,194.88 1473.74,192.38 1478,189.5C 1477.78,183.167 1476.11,177.167 1473,171.5C 1458.03,138.889 1441.03,107.555 1422,77.5C 1400.96,51.6124 1376.12,30.279 1347.5,13.5C 1342.25,12.2357 1337.75,9.56905 1334,5.5C 1333.62,6.05596 1333.12,6.38929 1332.5,6.5C 1332.5,6.16667 1332.5,5.83333 1332.5,5.5C 1328.21,2.64044 1323.54,0.640441 1318.5,-0.5 Z M 1607.5,87.5 C 1615.16,87.9775 1622.83,88.4775 1630.5,89C 1634.43,89.0627 1637.93,90.2293 1641,92.5C 1665.4,137.651 1691.07,181.985 1718,225.5C 1724.3,235.303 1730.8,244.97 1737.5,254.5C 1738.09,254.291 1738.59,253.957 1739,253.5C 1740.97,235.398 1741.81,217.232 1741.5,199C 1741.68,172.102 1740.51,145.269 1738,118.5C 1732.98,106.975 1725.81,96.9752 1716.5,88.5C 1735.66,87.503 1754.99,87.1697 1774.5,87.5C 1781.34,87.6774 1788.01,88.5107 1794.5,90C 1790.54,96.7525 1786.71,103.586 1783,110.5C 1780.48,118.635 1779.14,126.969 1779,135.5C 1778.33,202.833 1778.33,270.167 1779,337.5C 1786.11,345.55 1792.61,354.05 1798.5,363C 1792.25,364.204 1785.91,364.871 1779.5,365C 1747.83,365.833 1716.16,365.667 1684.5,364.5C 1652.33,309.176 1619.16,254.509 1585,200.5C 1583.99,199.663 1582.82,199.33 1581.5,199.5C 1579.14,225.933 1578.14,252.433 1578.5,279C 1578.4,295.53 1578.9,312.03 1580,328.5C 1583.75,342.194 1591.25,353.028 1602.5,361C 1602.09,361.945 1601.43,362.612 1600.5,363C 1594.19,364.097 1587.86,364.93 1581.5,365.5C 1561.33,365.83 1541.33,365.497 1521.5,364.5C 1528.14,357.025 1534.64,349.358 1541,341.5C 1541.67,266.167 1541.67,190.833 1541,115.5C 1533.67,106.339 1525.84,97.6728 1517.5,89.5C 1547.15,87.5078 1577.15,86.8411 1607.5,87.5 Z"/></g>
<g><path style="opacity:0.055" fill="#7f7f7f" d="M 1311.5,-0.5 C 1313.83,-0.5 1316.17,-0.5 1318.5,-0.5C 1323.54,0.640441 1328.21,2.64044 1332.5,5.5C 1325.46,3.32694 1318.46,1.32694 1311.5,-0.5 Z"/></g>
<g><path style="opacity:0.416" fill="#898989" d="M 1347.5,13.5 C 1341.4,13.2575 1336.4,10.9242 1332.5,6.5C 1333.12,6.38929 1333.62,6.05596 1334,5.5C 1337.75,9.56905 1342.25,12.2357 1347.5,13.5 Z"/></g>
<g><path style="opacity:0.753" fill="#b2b2b2" d="M 1607.5,87.5 C 1577.15,86.8411 1547.15,87.5078 1517.5,89.5C 1516.6,88.791 1516.26,87.791 1516.5,86.5C 1547,86.1685 1577.34,86.5019 1607.5,87.5 Z"/></g>
<g><path style="opacity:0.753" fill="#b2b2b2" d="M 1774.5,87.5 C 1754.99,87.1697 1735.66,87.503 1716.5,88.5C 1715.96,88.44 1715.62,88.1067 1715.5,87.5C 1735.33,86.1721 1755,86.1721 1774.5,87.5 Z"/></g>
<g><path style="opacity:0.965" fill="#b8b8b8" d="M 1096.5,151.5 C 1093.83,154.833 1090.83,157.833 1087.5,160.5C 1089.5,156.5 1092.5,153.5 1096.5,151.5 Z"/></g>
<g><path style="opacity:0.439" fill="#999999" d="M 919.5,360.5 C 920.043,360.56 920.376,360.893 920.5,361.5C 910.856,362.498 901.19,362.832 891.5,362.5C 900.833,361.833 910.167,361.167 919.5,360.5 Z"/></g>
<g><path style="opacity:0.753" fill="#afafaf" d="M 242.5,364.5 C 272.093,365.492 301.76,365.825 331.5,365.5C 316.837,366.167 302.004,366.5 287,366.5C 271.818,366.499 256.985,365.833 242.5,364.5 Z"/></g>
<g><path style="opacity:0.753" fill="#adadad" d="M 1521.5,364.5 C 1541.33,365.497 1561.33,365.83 1581.5,365.5C 1561.33,366.828 1541,366.828 1520.5,365.5C 1520.62,364.893 1520.96,364.56 1521.5,364.5 Z"/></g>
<g><path style="opacity:0.031" fill="#737373" d="M 1170.5,438.5 C 1173.42,438.46 1176.09,439.293 1178.5,441C 1182.53,444.412 1186.87,447.245 1191.5,449.5C 1190.5,449.5 1189.5,449.5 1188.5,449.5C 1181.97,446.624 1175.97,442.957 1170.5,438.5 Z"/></g>
</svg>
