<?xml version="1.0" encoding="UTF-8"?>
<!DOCTYPE svg PUBLIC "-//W3C//DTD SVG 1.1//EN" "http://www.w3.org/Graphics/SVG/1.1/DTD/svg11.dtd">
<svg xmlns="http://www.w3.org/2000/svg" version="1.1" width="1879px" height="450px" style="shape-rendering:geometricPrecision; text-rendering:geometricPrecision; image-rendering:optimizeQuality; fill-rule:evenodd; clip-rule:evenodd" xmlns:xlink="http://www.w3.org/1999/xlink">
<g><path style="opacity:0.993" fill="#000000" d="M -0.5,-0.5 C 383.5,-0.5 767.5,-0.5 1151.5,-0.5C 1150.43,0.884606 1149.09,2.05127 1147.5,3C 1092.51,26.2518 1050.68,64.0851 1022,116.5C 1012.48,133.571 1007.48,151.904 1007,171.5C 1004.32,201.479 1003.99,231.479 1006,261.5C 1007.14,275.205 1009.81,288.539 1014,301.5C 1025.19,254.794 1045.19,212.46 1074,174.5C 1104.84,137.013 1143.34,110.513 1189.5,95C 1212.57,91.4028 1235.57,91.7361 1258.5,96C 1279.55,105.116 1297.72,118.283 1313,135.5C 1316.13,138.923 1318.63,142.757 1320.5,147C 1271.51,169.672 1221.84,191.006 1171.5,211C 1164.16,214.419 1156.5,215.753 1148.5,215C 1147.11,213.829 1146.27,212.329 1146,210.5C 1142.35,188.953 1139.68,167.286 1138,145.5C 1129.67,157.5 1121.33,169.5 1113,181.5C 1087.84,222.142 1078.51,266.142 1085,313.5C 1093.63,347.423 1108.63,378.09 1130,405.5C 1137.2,413.031 1144.7,420.198 1152.5,427C 1165.52,434.646 1178.52,442.146 1191.5,449.5C 794.167,449.5 396.833,449.5 -0.5,449.5C -0.5,299.5 -0.5,149.5 -0.5,-0.5 Z M 728.5,86.5 C 756.835,86.3334 785.169,86.5 813.5,87C 817.108,87.0259 820.442,87.8593 823.5,89.5C 820.636,95.5308 816.802,100.864 812,105.5C 808.1,115.233 807.433,125.233 810,135.5C 813,148.165 817,160.499 822,172.5C 837.102,205.475 850.436,239.142 862,273.5C 863.814,274.76 865.647,274.76 867.5,273.5C 874.289,258.301 879.789,242.635 884,226.5C 893.607,192.072 902.274,157.405 910,122.5C 910.667,117.833 910.667,113.167 910,108.5C 906.731,101.978 904.064,95.3115 902,88.5C 908.216,87.18 914.549,86.5133 921,86.5C 941.247,86.8942 961.413,88.0608 981.5,90C 976.073,97.4305 969.907,104.264 963,110.5C 955.879,120.85 950.879,132.184 948,144.5C 931.265,206.273 914.765,268.106 898.5,330C 903.107,341.943 910.107,352.276 919.5,361C 879.51,362.464 839.51,362.797 799.5,362C 792.792,361.711 786.125,361.045 779.5,360C 776.966,359.484 774.8,358.317 773,356.5C 746.516,283.195 719.183,210.195 691,137.5C 688.798,131.228 686.798,124.895 685,118.5C 679.771,109.875 674.938,101.042 670.5,92C 676.342,90.2141 682.342,89.2141 688.5,89C 701.998,88.2742 715.331,87.4409 728.5,86.5 Z M 95.5,87.5 C 127.188,87.0966 158.855,87.5966 190.5,89C 193.754,89.2503 196.754,90.2503 199.5,92C 229.205,147.939 261.538,202.106 296.5,254.5C 298.119,248.987 298.952,243.32 299,237.5C 299.667,202.5 299.667,167.5 299,132.5C 298.614,126.29 297.281,120.29 295,114.5C 289.958,106.249 284.792,98.0822 279.5,90C 283.313,88.7378 287.313,88.0712 291.5,88C 311.524,87.1502 331.524,87.4835 351.5,89C 351.957,89.414 352.291,89.914 352.5,90.5C 348.667,97.5 344.833,104.5 341,111.5C 339.358,116.708 338.358,122.041 338,127.5C 336.404,197.489 336.07,267.489 337,337.5C 344.073,345.404 350.573,353.737 356.5,362.5C 356,362.833 355.5,363.167 355,363.5C 349.204,364.269 343.371,364.769 337.5,365C 306.167,365.667 274.833,365.667 243.5,365C 211.295,310.085 178.462,255.585 145,201.5C 143.89,199.963 142.39,199.297 140.5,199.5C 139.034,243.186 139.534,286.853 142,330.5C 142.582,336.495 144.248,342.162 147,347.5C 151.833,353 156.667,358.5 161.5,364C 138.86,365.564 116.194,365.898 93.5,365C 89.9716,364.911 86.6382,364.244 83.5,363C 88.458,355.585 93.2913,348.085 98,340.5C 99.4725,336.277 100.472,331.943 101,327.5C 104.504,278.873 105.171,230.207 103,181.5C 102.394,161.074 100.727,140.741 98,120.5C 97.0581,117.007 95.7248,113.674 94,110.5C 87.8333,103.667 81.6667,96.8333 75.5,90C 82.2404,88.9105 88.907,88.0772 95.5,87.5 Z M 495.5,89.5 C 523.518,89.7549 551.518,90.5882 579.5,92C 584.475,91.6178 588.642,93.1178 592,96.5C 621.667,176.167 651.333,255.833 681,335.5C 686.023,343.546 690.523,351.879 694.5,360.5C 694.291,361.086 693.957,361.586 693.5,362C 675.595,364.483 657.595,365.816 639.5,366C 611.167,366.667 582.833,366.667 554.5,366C 551.086,365.703 547.753,365.036 544.5,364C 542.789,362.867 542.289,361.367 543,359.5C 545.333,355.833 548.333,352.833 552,350.5C 557.561,341.135 558.894,331.135 556,320.5C 553.44,309.258 550.107,298.258 546,287.5C 530.599,252.368 516.599,216.701 504,180.5C 499.952,177.353 497.285,178.353 496,183.5C 478.4,234.138 464.566,285.804 454.5,338.5C 455.843,346.695 458.677,354.361 463,361.5C 463.49,362.793 463.657,364.127 463.5,365.5C 437.491,366.519 411.491,366.019 385.5,364C 385.043,363.586 384.709,363.086 384.5,362.5C 390.814,355.018 397.314,347.685 404,340.5C 407.103,335.731 409.769,330.731 412,325.5C 430.134,261.299 447.8,196.965 465,132.5C 466.244,128.221 466.577,123.888 466,119.5C 461.054,109.222 454.554,100.056 446.5,92C 462.995,91.2182 479.329,90.3849 495.5,89.5 Z"/></g>
<g><path style="opacity:0.993" fill="#000000" d="M 1311.5,-0.5 C 1500.5,-0.5 1689.5,-0.5 1878.5,-0.5C 1878.5,149.5 1878.5,299.5 1878.5,449.5C 1715.17,449.5 1551.83,449.5 1388.5,449.5C 1410.1,438.033 1431.1,425.533 1451.5,412C 1459.45,406.382 1467.12,400.382 1474.5,394C 1477.97,390.56 1479.97,386.393 1480.5,381.5C 1475.63,346.077 1470.3,310.743 1464.5,275.5C 1463.45,275.351 1462.45,275.517 1461.5,276C 1446.5,289.667 1431.5,303.333 1416.5,317C 1396.71,333.568 1374.71,346.568 1350.5,356C 1316.58,367.495 1282.25,369.162 1247.5,361C 1228.31,351.147 1212.14,337.647 1199,320.5C 1196.74,317.722 1196.24,314.722 1197.5,311.5C 1286.27,272.783 1375.27,234.616 1464.5,197C 1469.24,194.88 1473.74,192.38 1478,189.5C 1477.78,183.167 1476.11,177.167 1473,171.5C 1458.86,141.214 1443.19,111.88 1426,83.5C 1409.85,61.6812 1390.68,42.8478 1368.5,27C 1363.33,23.9148 1358.33,20.5814 1353.5,17C 1348.47,14.2107 1343.13,12.2107 1337.5,11C 1329.88,4.68574 1321.21,0.852403 1311.5,-0.5 Z M 1517.5,87.5 C 1550.17,87.3334 1582.84,87.5 1615.5,88C 1623.63,88.0745 1631.63,89.0745 1639.5,91C 1664.78,136.408 1690.95,181.241 1718,225.5C 1724.3,235.303 1730.8,244.97 1737.5,254.5C 1738.09,254.291 1738.59,253.957 1739,253.5C 1740.97,235.398 1741.81,217.232 1741.5,199C 1741.68,172.102 1740.51,145.269 1738,118.5C 1732.85,106.997 1725.68,96.8306 1716.5,88C 1738.17,87.3333 1759.83,87.3333 1781.5,88C 1786.02,88.0646 1790.35,88.7313 1794.5,90C 1790.54,96.7525 1786.71,103.586 1783,110.5C 1780.48,118.635 1779.14,126.969 1779,135.5C 1778.33,202.833 1778.33,270.167 1779,337.5C 1786.11,345.55 1792.61,354.05 1798.5,363C 1792.25,364.204 1785.91,364.871 1779.5,365C 1747.83,365.833 1716.16,365.667 1684.5,364.5C 1652.33,309.176 1619.16,254.509 1585,200.5C 1583.99,199.663 1582.82,199.33 1581.5,199.5C 1579.14,225.933 1578.14,252.433 1578.5,279C 1578.4,295.53 1578.9,312.03 1580,328.5C 1583.75,342.194 1591.25,353.028 1602.5,361C 1602.09,361.945 1601.43,362.612 1600.5,363C 1595.55,363.995 1590.55,364.662 1585.5,365C 1564.17,365.667 1542.83,365.667 1521.5,365C 1528,357.167 1534.5,349.333 1541,341.5C 1541.67,266.167 1541.67,190.833 1541,115.5C 1532.93,106.274 1525.1,96.941 1517.5,87.5 Z"/></g>
</svg>
